HIERARCHY
ROOT Hips
{
	OFFSET 0.000000 0.000000 0.000000
	CHANNELS 6 Xposition Yposition Zposition Xrotation Yrotation Zrotation
	JOINT LeftUpLeg_virtual
	{
		OFFSET 0.000000 0.000000 0.000000
		CHANNELS 3 Xrotation Yrotation Zrotation
		JOINT LeftUpLeg
		{
			OFFSET 13.026900 -6.336304 -1.092800
			CHANNELS 3 Xrotation Yrotation Zrotation
			JOINT LeftLeg
			{
				OFFSET 0.524474 -46.096886 9.782700
				CHANNELS 3 Xrotation Yrotation Zrotation
				JOINT LeftFoot
				{
					OFFSET -0.524474 -53.427422 -12.948200
					CHANNELS 3 Xrotation Yrotation Zrotation
					JOINT LeftToeBase
					{
						OFFSET 0.192200 -14.009700 16.364100
						CHANNELS 3 Xrotation Yrotation Zrotation
						JOINT LeftToe_End
						{
							OFFSET -1.784700 -0.561700 9.474800
							CHANNELS 3 Xrotation Yrotation Zrotation
							End Site
							{
								OFFSET 0 0 0
							}
						}
					}
				}
			}
		}
	}
	JOINT RightUpLeg_virtual
	{
		OFFSET 0.000000 0.000000 0.000000
		CHANNELS 3 Xrotation Yrotation Zrotation
		JOINT RightUpLeg
		{
			OFFSET -12.883000 -6.336304 -1.092800
			CHANNELS 3 Xrotation Yrotation Zrotation
			JOINT RightLeg
			{
				OFFSET -0.524587 -46.096825 9.782800
				CHANNELS 3 Xrotation Yrotation Zrotation
				JOINT RightFoot
				{
					OFFSET 0.524587 -53.427383 -12.948300
					CHANNELS 3 Xrotation Yrotation Zrotation
					JOINT RightToeBase
					{
						OFFSET -0.192200 -14.009700 16.364100
						CHANNELS 3 Xrotation Yrotation Zrotation
						JOINT RightToe_End
						{
							OFFSET 1.784700 -0.561700 9.474800
							CHANNELS 3 Xrotation Yrotation Zrotation
							End Site
							{
								OFFSET 0 0 0
							}
						}
					}
				}
			}
		}
	}
	JOINT Spine_virtual
	{
		OFFSET 0.000000 0.000000 0.000000
		CHANNELS 3 Xrotation Yrotation Zrotation
		JOINT Spine
		{
			OFFSET 0.072000 7.257294 -0.789700
			CHANNELS 3 Xrotation Yrotation Zrotation
			JOINT Spine1
			{
				OFFSET 0.000000 12.508769 -0.658067
				CHANNELS 3 Xrotation Yrotation Zrotation
				JOINT Spine1_split
				{
					OFFSET 0.000000 12.508769 -0.658067
					CHANNELS 3 Xrotation Yrotation Zrotation
					JOINT Spine2
					{
						OFFSET 0.000000 12.508769 -0.658067
						CHANNELS 3 Xrotation Yrotation Zrotation
						JOINT Neck_virtual
						{
							OFFSET 0.000000 0.000000 0.000000
							CHANNELS 3 Xrotation Yrotation Zrotation
							JOINT Neck
							{
								OFFSET 0.000000 14.033295 7.520400
								CHANNELS 3 Xrotation Yrotation Zrotation
								JOINT Head
								{
									OFFSET 0.000000 8.198502 5.703100
									CHANNELS 3 Xrotation Yrotation Zrotation
									JOINT HeadTop_End
									{
										OFFSET 0.000000 17.760803 13.332701
										CHANNELS 3 Xrotation Yrotation Zrotation
										End Site
										{
											OFFSET 0 0 0
										}
									}
								}
							}
						}
						JOINT LeftShoulder_virtual
						{
							OFFSET 0.000000 0.000000 0.000000
							CHANNELS 3 Xrotation Yrotation Zrotation
							JOINT LeftShoulder
							{
								OFFSET 6.292450 5.785301 -0.669000
								CHANNELS 3 Xrotation Yrotation Zrotation
								JOINT LeftShoulder_split
								{
									OFFSET 6.292450 5.785301 -0.669000
									CHANNELS 3 Xrotation Yrotation Zrotation
									JOINT LeftArm
									{
										OFFSET 13.907140 -6.093903 1.965100
										CHANNELS 3 Xrotation Yrotation Zrotation
										JOINT LeftForeArm
										{
											OFFSET 34.140198 0.000000 0.000000
											CHANNELS 3 Xrotation Yrotation Zrotation
											JOINT LeftHand
											{
												OFFSET 40.960209 0.000000 0.000000
												CHANNELS 3 Xrotation Yrotation Zrotation
												End Site
												{
													OFFSET 0 0 0
												}
											}
										}
									}
								}
							}
						}
						JOINT RightShoulder_virtual
						{
							OFFSET 0.000000 0.000000 0.000000
							CHANNELS 3 Xrotation Yrotation Zrotation
							JOINT RightShoulder
							{
								OFFSET -6.292450 5.785301 -0.669000
								CHANNELS 3 Xrotation Yrotation Zrotation
								JOINT RightShoulder_split
								{
									OFFSET -6.292450 5.785301 -0.669000
									CHANNELS 3 Xrotation Yrotation Zrotation
									JOINT RightArm
									{
										OFFSET -13.907140 -6.093903 1.965100
										CHANNELS 3 Xrotation Yrotation Zrotation
										JOINT RightForeArm
										{
											OFFSET -34.140198 0.000000 0.000000
											CHANNELS 3 Xrotation Yrotation Zrotation
											JOINT RightHand
											{
												OFFSET -40.960209 0.000000 0.000000
												CHANNELS 3 Xrotation Yrotation Zrotation
												End Site
												{
													OFFSET 0 0 0
												}
											}
										}
									}
								}
							}
						}
					}
				}
			}
		}
	}
}
MOTION
Frames: 5
Frame Time: 0.03333333
5.484201 120.935959 -7.890516 0.000000 0.000000 0.000000 -2.067422 -3.283440 -2.671668 -14.762851 16.477162 11.492989 12.972717 1.993035 3.542176 2.129841 1.517410 -13.835358 -1.273475 -3.324211 0.406184 0.000000 0.000000 0.000000 -1.899688 -2.960052 -2.743891 2.770381 -10.850252 -0.229235 1.640041 -3.516453 -0.452369 -5.413478 -6.172774 8.209515 -3.515098 0.266993 -3.537649 0.000000 0.000000 0.000000 -2.260208 -1.097269 -2.925113 3.102195 -0.965751 3.900073 -0.508483 0.208964 2.030383 0.135099 -0.183265 -0.020689 0.000000 0.000000 0.000000 0.798647 2.170119 1.915201 8.614931 2.676674 0.801578 -6.140443 -14.530044 -11.947755 0.000000 0.000000 0.000000 -0.258727 0.802661 1.298225 -1.564791 -18.005589 -14.365829 -0.107520 0.434535 -4.150745 12.645677 -22.906175 -65.909700 0.303580 -5.737827 2.661733 0.000000 0.000000 0.000000 0.630027 1.153953 2.064733 1.268543 9.596072 13.530247 -4.441943 0.562599 1.455059 10.539484 28.900702 62.275206 -3.573256 -0.601899 0.971664 0.000000 0.000000 0.000000 
5.514904 120.923386 -7.839441 0.000000 0.000000 0.000000 -2.100602 -3.391183 -2.696007 -14.700295 16.447374 11.479723 13.050218 2.027596 3.527906 2.099260 1.646934 -13.789588 -1.264410 -3.333054 0.404763 0.000000 0.000000 0.000000 -1.911777 -3.000624 -2.751727 2.815714 -10.803858 -0.210534 1.608298 -3.483238 -0.469119 -5.356517 -6.310369 8.172331 -3.348113 0.254283 -3.472925 0.000000 0.000000 0.000000 -2.315391 -1.193125 -2.967922 3.141608 -0.987786 3.896950 -0.499354 0.201540 2.044927 0.130616 -0.183813 -0.026600 0.000000 0.000000 0.000000 0.796540 2.169331 1.927355 8.601166 2.667978 0.819380 -6.200378 -14.478785 -11.908702 0.000000 0.000000 0.000000 -0.241124 0.796846 1.318613 -1.564918 -18.061221 -14.371896 -0.126955 0.379757 -4.096598 12.551599 -22.904513 -65.957873 0.264164 -5.874236 2.644084 0.000000 0.000000 0.000000 0.625956 1.145768 2.077375 1.248542 9.522180 13.550265 -4.458844 0.553036 1.497323 10.681112 28.888476 62.153014 -3.552338 -0.683204 1.023295 0.000000 0.000000 0.000000 
5.538462 120.889641 -7.792734 0.000000 0.000000 0.000000 -2.166703 -3.609838 -2.734560 -14.562499 16.437089 11.503524 13.194022 2.089069 3.525729 1.988009 1.878696 -13.782045 -1.285064 -3.343924 0.392463 0.000000 0.000000 0.000000 -1.961425 -3.160863 -2.773424 2.795808 -10.704147 -0.193070 1.672841 -3.332193 -0.486230 -5.277521 -6.494382 8.217300 -3.143323 0.252838 -3.543355 0.000000 0.000000 0.000000 -2.392075 -1.382758 -3.030276 3.186983 -0.992839 3.907187 -0.480523 0.183187 2.068113 0.125713 -0.180066 -0.032530 0.000000 0.000000 0.000000 0.808950 2.158642 1.940957 8.587285 2.650932 0.853117 -6.334690 -14.395761 -11.897962 0.000000 0.000000 0.000000 -0.216385 0.779979 1.346858 -1.579221 -18.105424 -14.358996 -0.129403 0.345348 -4.107395 12.447344 -22.864424 -66.007891 0.310980 -5.959084 2.683396 0.000000 0.000000 0.000000 0.621783 1.124944 2.096154 1.261543 9.474399 13.566987 -4.557128 0.604810 1.557166 10.984674 28.934918 61.929168 -3.502748 -0.738442 1.058949 0.000000 0.000000 0.000000 
5.534967 120.842430 -7.751993 0.000000 0.000000 0.000000 -2.264977 -3.912865 -2.778595 -14.379092 16.450736 11.554988 13.387305 2.168114 3.526938 1.817033 2.187230 -13.814004 -1.320907 -3.355756 0.376661 0.000000 0.000000 0.000000 -2.038402 -3.416607 -2.802219 2.739243 -10.556757 -0.165238 1.798656 -3.070172 -0.510339 -5.222734 -6.701691 8.307882 -2.872215 0.262218 -3.738373 0.000000 0.000000 0.000000 -2.490496 -1.628900 -3.101803 3.234841 -0.974200 3.929782 -0.453683 0.158380 2.094037 0.124267 -0.169981 -0.032809 0.000000 0.000000 0.000000 0.834724 2.139786 1.951728 8.574618 2.621010 0.904036 -6.521932 -14.289977 -11.903191 0.000000 0.000000 0.000000 -0.185428 0.754789 1.374775 -1.611011 -18.142741 -14.322061 -0.152796 0.351256 -4.180399 12.360605 -22.738139 -66.062184 0.421008 -5.963126 2.769158 0.000000 0.000000 0.000000 0.622112 1.095511 2.116893 1.302106 9.462604 13.568815 -4.684012 0.685686 1.619966 11.427173 29.096777 61.622554 -3.420007 -0.774885 1.058149 0.000000 0.000000 0.000000 
5.517129 120.784058 -7.731264 0.000000 0.000000 0.000000 -2.385505 -4.270715 -2.824774 -14.169909 16.481221 11.613770 13.610412 2.261272 3.526866 1.627086 2.551877 -13.877480 -1.339442 -3.368753 0.361889 0.000000 0.000000 0.000000 -2.140034 -3.735092 -2.834349 2.663198 -10.372101 -0.125230 1.962613 -2.720959 -0.547657 -5.221525 -6.933713 8.385773 -2.506552 0.277201 -4.031702 0.000000 0.000000 0.000000 -2.612078 -1.925026 -3.170718 3.284692 -0.926278 3.963294 -0.416780 0.132221 2.117042 0.122386 -0.162483 -0.028881 0.000000 0.000000 0.000000 0.869363 2.116223 1.953679 8.562849 2.574644 0.976336 -6.714033 -14.191283 -11.900607 0.000000 0.000000 0.000000 -0.148288 0.723160 1.398185 -1.659569 -18.188584 -14.251686 -0.185782 0.377775 -4.286708 12.302971 -22.506614 -66.106689 0.564661 -5.915883 2.880537 0.000000 0.000000 0.000000 0.631375 1.061949 2.134498 1.366330 9.498465 13.537604 -4.836536 0.738053 1.684074 11.992840 29.411198 61.226909 -3.300897 -0.770072 1.000343 0.000000 0.000000 0.000000 
